<svg width="78" height="72" viewBox="0 0 78 72" fill="none" xmlns="http://www.w3.org/2000/svg">
<ellipse cx="38.8125" cy="25.875" rx="18.5625" ry="18" fill="#F46969"/>
<path d="M37.9424 42.3288C29.5032 41.8734 22.7226 35.0665 22.3567 26.7975C21.9665 17.5219 29.5276 9.82812 38.8937 9.82812C45.9182 9.82812 52.1866 14.1903 54.5037 20.6856L53.0647 21.189C52.4305 21.4047 51.7476 21.0931 51.4793 20.5179C49.2597 15.7003 44.3328 12.5125 38.8937 12.5125C31.113 12.5125 24.8202 18.8401 25.0885 26.5338C25.3324 33.7003 31.3569 39.5485 38.6741 39.6444C44.1377 39.7402 48.9914 36.7442 51.3329 32.0225C51.6256 31.4473 52.3086 31.1836 52.9183 31.4233L54.333 31.9746C51.7232 38.5658 45.2109 42.7123 37.9424 42.3288Z" fill="#27224F"/>
<path d="M33.5033 22.8891C34.8234 22.8891 35.8936 21.8375 35.8936 20.5403C35.8936 19.243 34.8234 18.1914 33.5033 18.1914C32.1832 18.1914 31.113 19.243 31.113 20.5403C31.113 21.8375 32.1832 22.8891 33.5033 22.8891Z" fill="#27224F"/>
<path d="M44.2841 22.8891C45.6042 22.8891 46.6744 21.8375 46.6744 20.5403C46.6744 19.243 45.6042 18.1914 44.2841 18.1914C42.964 18.1914 41.8938 19.243 41.8938 20.5403C41.8938 21.8375 42.964 22.8891 44.2841 22.8891Z" fill="#27224F"/>
<path d="M38.6496 35.905C34.0642 35.7852 30.4788 31.9503 30.4788 27.4683V26.1021C30.4788 26.1021 30.4788 26.0781 30.5032 26.0781H31.9422C32.6495 26.0781 33.2105 26.6294 33.2105 27.3245V27.4922C33.2105 30.5122 35.6008 33.1008 38.674 33.1966C41.8936 33.3165 44.5522 30.7759 44.5522 27.636V27.3484C44.5522 26.6534 45.1132 26.1021 45.8205 26.1021H47.2596C47.2596 26.1021 47.2839 26.1021 47.2839 26.1261V27.684C47.3083 32.2859 43.4058 36.0249 38.6496 35.905Z" fill="#27224F"/>
<path d="M15.7956 62.1999C12.3322 62.1999 9.52723 59.2998 9.77114 55.8484C9.96626 53.2598 11.8687 51.0547 14.4542 50.4795C16.8688 49.9522 19.3079 50.9109 20.6982 52.8044L19.5518 53.5474C19.1372 53.8111 18.6006 53.8111 18.2347 53.4995C17.3079 52.7085 16.0152 52.373 14.7468 52.7325C13.3566 53.116 12.3078 54.3144 12.1126 55.7045C11.7956 57.9575 13.5761 59.899 15.7956 59.899C16.9908 59.899 18.064 59.3477 18.7713 58.4609C19.064 58.0774 19.6006 57.9096 20.064 58.1014L21.3567 58.6047C20.3811 60.8097 18.2103 62.1999 15.7956 62.1999Z" fill="#27224F"/>
<path d="M26.8202 62.1967C24.4055 61.981 22.6006 59.8718 22.6006 57.499V54.1914H23.8201C24.4299 54.1914 24.9177 54.6708 24.9177 55.27V57.5709C24.9177 58.7453 25.7714 59.7999 26.9665 59.9677C28.4056 60.1594 29.6495 59.0329 29.6495 57.6668V55.2939C29.6495 54.6947 30.1373 54.2154 30.7471 54.2154H31.9666V57.6668C31.9422 60.3032 29.6007 62.4604 26.8202 62.1967Z" fill="#27224F"/>
<path d="M51.9672 60.618V55.0574C51.9672 53.8829 51.1136 52.8283 49.9184 52.6606C48.4794 52.4688 47.2354 53.5953 47.2354 54.9615V61.6726H44.9183V55.0574C44.9183 53.8829 44.0646 52.8283 42.8695 52.6606C41.4304 52.4688 40.1865 53.5953 40.1865 54.9615V60.594C40.1865 61.1932 39.6987 61.6726 39.0889 61.6726H37.8694V55.1293C37.8694 52.5887 39.8938 50.4076 42.4792 50.3836C43.7963 50.3596 45.0403 50.8869 45.9427 51.8217L46.0647 51.9415L46.1866 51.8217C47.0647 50.9109 48.3086 50.3836 49.5769 50.3836C52.1624 50.3836 54.26 52.4449 54.26 54.9855V61.6965H53.0404C52.4551 61.6965 51.9672 61.1932 51.9672 60.618Z" fill="#27224F"/>
<path d="M23.7469 53.1876C22.9664 53.1876 22.3079 52.5644 22.3079 51.7735C22.3079 51.0065 22.942 50.3594 23.7469 50.3594C24.5518 50.3594 25.186 50.9825 25.186 51.7735C25.186 52.5644 24.5274 53.1876 23.7469 53.1876Z" fill="#27224F"/>
<path d="M30.796 53.1876C30.0155 53.1876 29.3569 52.5644 29.3569 51.7735C29.3569 51.0065 29.9911 50.3594 30.796 50.3594C31.6009 50.3594 32.235 50.9825 32.235 51.7735C32.2106 52.5644 31.5765 53.1876 30.796 53.1876Z" fill="#27224F"/>
<path d="M34.8692 53.1876C34.0887 53.1876 33.4302 52.5644 33.4302 51.7735C33.4302 51.0065 34.0643 50.3594 34.8692 50.3594C35.6497 50.3594 36.3083 50.9825 36.3083 51.7735C36.3083 52.5644 35.6741 53.1876 34.8692 53.1876Z" fill="#27224F"/>
<path d="M33.7229 61.67V55.2465C33.7229 54.6473 34.2107 54.168 34.8205 54.168H36.04V60.4476C36.04 61.1187 35.479 61.67 34.7961 61.67H33.7229Z" fill="#27224F"/>
<path d="M61.943 62.223C58.6258 62.223 55.9185 59.5626 55.9185 56.3029C55.9185 53.0433 58.6258 50.3828 61.943 50.3828C65.2601 50.3828 67.9675 53.0433 67.9675 56.3029C67.9675 59.5626 65.2601 62.223 61.943 62.223ZM61.943 52.6598C59.8942 52.6598 58.2112 54.2896 58.2112 56.3269C58.2112 58.3402 59.8698 59.994 61.943 59.994C64.0162 59.994 65.6748 58.3642 65.6748 56.3269C65.6504 54.2896 63.9918 52.6598 61.943 52.6598Z" fill="#27224F"/>
</svg>
